<svg xmlns="http://www.w3.org/2000/svg" width="383" height="363" viewBox="0 0 383 363">
  <g id="Group_1182" data-name="Group 1182" transform="translate(-510 -619)">
    <g id="Group_654" data-name="Group 654" transform="translate(402.809 587.544)">
      <path id="Path_1030" data-name="Path 1030" d="M227.541,389.475h0a3.359,3.359,0,0,0,3.35-3.35v-52.86a3.366,3.366,0,0,0-3.35-3.35h0a3.365,3.365,0,0,0-3.35,3.35v52.86a3.358,3.358,0,0,0,3.35,3.35Z" transform="translate(0 -146.87)" fill="#646464" fill-rule="evenodd"/>
      <path id="Path_1031" data-name="Path 1031" d="M364.73,295.995a31.467,31.467,0,0,0-3.049,2.289c-9.024,10.519-9.217,22.1-9.977,31.618a32.936,32.936,0,0,1-1.373,9c-1.591,5.422-5.085,9.29-13.761,10.458-.578.072-1.157.156-1.735.217-.94.145-1.928.253-2.976.337a255.434,255.434,0,0,1-51.691,0c-1.048-.084-2.036-.192-2.976-.337l-1.735-.217c-8.687-1.169-12.169-5.036-13.76-10.458a32.936,32.936,0,0,1-1.374-9c-.759-9.52-.951-21.1-9.976-31.618a31.577,31.577,0,0,0-3.049-2.289,31.794,31.794,0,0,1-6.6-6.1c-3.567-2.832-5.254-7.217-6.35-12.109a15.9,15.9,0,0,1-.374-3.327V148.511c0-6.663,4.964-13.29,10.374-16.785.168-.108.325-.217.494-.325l.4-.289a34.239,34.239,0,0,0,5.181-4.567c6.88-7.808,9.627-19.206,10.495-29.726q.181-2.458.289-4.916c.012-.482.024-.964.036-1.434,0-9.483,4.458-13.941,13.326-14.507.819-.073,1.639-.133,2.458-.2a323.486,323.486,0,0,1,57.981,0c.819.072,1.639.132,2.458.2,8.869.566,13.326,5.024,13.326,14.507.012.47.025.952.036,1.434.072,1.639.169,3.277.278,4.916,1.084,12.989,4.638,26.364,15.688,34.293l.4.289c.157.108.326.217.495.325,5.41,3.495,10.374,10.121,10.374,16.785V274.462a15.928,15.928,0,0,1-.373,3.327c-1.109,7.735-6.567,13.965-12.953,18.206Z" transform="translate(-5.623)" fill="#c0cdd2" fill-rule="evenodd"/>
      <path id="Path_1032" data-name="Path 1032" d="M364.73,367.051c-3.783,2.494-8.351,2.7-12.832,2.7H260.456a34.74,34.74,0,0,1-12.026-1.916c-.361-.266-.747-.518-1.132-.783-6.386-4.241-11.845-10.471-12.953-18.206a15.9,15.9,0,0,1-.374-3.327V219.567c0-6.663,4.964-13.29,10.374-16.784.168-.108.325-.217.494-.326l.4-.289c5.181-3.711,9.314-4.121,15.8-4.121H351.56c6.868,0,9.869.277,15.23,4.121l.4.289c.157.109.326.217.495.326,5.41,3.495,10.374,10.121,10.374,16.784V345.518a15.927,15.927,0,0,1-.373,3.327c-1.109,7.735-6.567,13.965-12.953,18.206Z" transform="translate(-5.623 -71.056)" fill="#212121" fill-rule="evenodd"/>
      <path id="Path_1033" data-name="Path 1033" d="M255.273,369.545a31.581,31.581,0,0,0,10.266,1.531h91.442c3.591,0,7.687-.049,10.748-2.073,5.422-3.591,10.351-8.941,11.315-15.6l.012-.133.036-.132a12.018,12.018,0,0,0,.289-2.531V224.651c0-5.338-4.337-10.844-8.652-13.628-.168-.108-.349-.216-.518-.337l-.1-.06-.1-.072a3.359,3.359,0,0,0-.338-.241c-4.578-3.3-7.229-3.422-13.037-3.422H266.118c-5.47,0-9.194.241-13.6,3.422a3.445,3.445,0,0,0-.337.241l-.1.072-.1.06c-.169.121-.349.229-.518.337-4.314,2.784-8.651,8.29-8.651,13.628V350.6a11.966,11.966,0,0,0,.289,2.531l.037.132.012.133c.94,6.518,5.928,12.037,11.314,15.6.265.181.531.362.808.542Z" transform="translate(-10.707 -76.141)" fill="#0a0a0a" fill-rule="evenodd"/>
      <g id="Group_652" data-name="Group 652" transform="translate(246.265 159.49)">
        <rect id="Rectangle_1629" data-name="Rectangle 1629" width="1.326" height="12.591" transform="translate(51.911)" fill="#999"/>
        <rect id="Rectangle_1630" data-name="Rectangle 1630" width="1.325" height="12.591" transform="translate(55.004)" fill="#999"/>
        <rect id="Rectangle_1631" data-name="Rectangle 1631" width="1.325" height="12.591" transform="translate(53.457 94.102)" fill="#999"/>
        <rect id="Rectangle_1632" data-name="Rectangle 1632" width="12.812" height="1.326" transform="translate(95.428 53.457)" fill="#999"/>
        <rect id="Rectangle_1633" data-name="Rectangle 1633" width="12.812" height="1.326" transform="translate(0 53.457)" fill="#999"/>
        <rect id="Rectangle_1634" data-name="Rectangle 1634" width="12.124" height="0.663" transform="translate(74.626 17.548) rotate(-60.081)" fill="#919092"/>
        <rect id="Rectangle_1635" data-name="Rectangle 1635" width="12.124" height="0.663" transform="matrix(0.5, -0.866, 0.866, 0.5, 26.879, 100.448)" fill="#919092"/>
        <rect id="Rectangle_1636" data-name="Rectangle 1636" width="12.149" height="0.662" transform="translate(89.359 31.586) rotate(-31.928)" fill="#919092"/>
        <rect id="Rectangle_1637" data-name="Rectangle 1637" width="12.149" height="0.663" transform="matrix(0.849, -0.529, 0.529, 0.849, 7.998, 82.295)" fill="#919092"/>
        <rect id="Rectangle_1638" data-name="Rectangle 1638" width="0.663" height="12.149" transform="matrix(0.502, -0.865, 0.865, 0.502, 90.04, 75.321)" fill="#919092"/>
        <rect id="Rectangle_1639" data-name="Rectangle 1639" width="0.663" height="12.149" transform="matrix(0.503, -0.864, 0.864, 0.503, 7.143, 27.163)" fill="#919092"/>
        <rect id="Rectangle_1640" data-name="Rectangle 1640" width="0.663" height="12.149" transform="matrix(0.867, -0.499, 0.499, 0.867, 26.77, 7.371)" fill="#919092"/>
        <rect id="Rectangle_1641" data-name="Rectangle 1641" width="0.663" height="12.15" transform="translate(74.616 90.447) rotate(-29.889)" fill="#919092"/>
        <path id="Path_1034" data-name="Path 1034" d="M403.524,400.187a1.743,1.743,0,1,1-1.743-1.744,1.743,1.743,0,0,1,1.743,1.744" transform="translate(-347.364 -345.759)" fill="#fff"/>
        <path id="Path_1035" data-name="Path 1035" d="M346.43,364.659l-.6.933L367.5,379.47l.6-.933Z" transform="translate(-316.197 -326.335)" fill="#fff"/>
        <path id="Path_1036" data-name="Path 1036" d="M410.811,370.867l.543.816,30.2-19.8-.544-.816Z" transform="translate(-353.558 -318.518)" fill="#fff"/>
        <rect id="Rectangle_1642" data-name="Rectangle 1642" width="0.517" height="40.081" transform="translate(55.459 57.82) rotate(-18.347)" fill="#b20000"/>
      </g>
    </g>
    <g id="Rectangle_1901" data-name="Rectangle 1901" transform="translate(510 619)" fill="rgba(255,255,255,0)" stroke="rgba(2,4,16,0.1)" stroke-width="1">
      <rect width="383" height="363" rx="5" stroke="none"/>
      <rect x="0.5" y="0.5" width="382" height="362" rx="4.5" fill="none"/>
    </g>
  </g>
</svg>
